<svg width="30" height="30" viewBox="0 0 30 30" fill="none" xmlns="http://www.w3.org/2000/svg">
<circle cx="15" cy="15" r="15" fill="white"/>
<path d="M21.8203 11.5501C22.5097 11.0331 23.1301 10.4127 23.6126 9.68888C22.9922 9.96461 22.2684 10.1714 21.5446 10.2403C22.3029 9.79228 22.8543 9.10294 23.1301 8.24127C22.4407 8.65487 21.648 8.96507 20.8552 9.13741C20.1659 8.4136 19.2353 8 18.2013 8C16.2022 8 14.5823 9.61994 14.5823 11.619C14.5823 11.8948 14.6167 12.1705 14.6857 12.4462C11.687 12.2739 8.99862 10.8263 7.20634 8.65487C6.89614 9.17188 6.72381 9.79228 6.72381 10.4816C6.72381 11.7224 7.34421 12.8254 8.34375 13.4802C7.75781 13.4458 7.17188 13.3079 6.68934 13.0322V13.0666C6.68934 14.8244 7.93015 16.2721 9.58456 16.6167C9.30882 16.6857 8.96415 16.7546 8.65395 16.7546C8.41268 16.7546 8.20588 16.7201 7.96461 16.6857C8.41268 18.1333 9.75689 19.1673 11.3424 19.2017C10.1016 20.1668 8.55055 20.7528 6.86167 20.7528C6.55147 20.7528 6.27574 20.7183 6 20.6838C7.58548 21.7178 9.48116 22.3038 11.5492 22.3038C18.2013 22.3038 21.8203 16.8235 21.8203 12.0326C21.8203 11.8603 21.8203 11.7224 21.8203 11.5501Z" fill="black"/>
</svg>
